<?xml version="1.0" encoding="UTF-8"?>
<!-- Generator: Adobe Illustrator 24.2.3, SVG Export Plug-In . SVG Version: 6.00 Build 0)  -->
<svg version="1.1" id="Layer_1" xmlns="http://www.w3.org/2000/svg" xmlns:xlink="http://www.w3.org/1999/xlink" x="0px" y="0px" viewBox="0 0 360 282" style="enable-background:new 0 0 360 282;" xml:space="preserve">
<style type="text/css">
	.st0{display:none;fill:#3A393D;}
	.st1{fill:#0B0E16;}
	.st2{fill:#6043DD;}
	.st3{fill:#0B0E17;}
</style>
<g>
	<rect class="st0" width="360" height="278"/>
	<g>
		<path class="st1" d="M352,36v238H8V36H352 M360,28H0v254h360V28L360,28z"/>
	</g>
	<g>
		<path class="st2" d="M356,32v246H4V32H356 M360,28H0v254h360V28L360,28z"/>
	</g>
	<rect class="st2" width="360" height="32"/>
	<g>
		<path class="st3" d="M68,10v10H58V10H68 M72,6H54v18h18V6L72,6z"/>
	</g>
	<g>
		<path class="st3" d="M44,10v10H34V10H44 M48,6H30v18h18V6L48,6z"/>
	</g>
	<g>
		<path class="st3" d="M20,10v10H10V10H20 M24,6H6v18h18V6L24,6z"/>
	</g>
</g>
</svg>