<?xml version="1.0" encoding="UTF-8"?>
<!-- Generator: Adobe Illustrator 24.2.3, SVG Export Plug-In . SVG Version: 6.00 Build 0)  -->
<svg version="1.1" id="Layer_1" xmlns="http://www.w3.org/2000/svg" xmlns:xlink="http://www.w3.org/1999/xlink" x="0px" y="0px" viewBox="0 0 360 282" style="enable-background:new 0 0 360 282;" xml:space="preserve">
<style type="text/css">
	.st0{display:none;fill:#3A393D;}
	.st1{fill:#0B0E16;}
	.st2{fill:url(#SVGID_1_);}
	.st3{fill:url(#SVGID_2_);}
	.st4{fill:#0B0E17;}
</style>
<g>
	<rect class="st0" width="360" height="278"/>
	<g>
		<path class="st1" d="M352,36v238H8V36H352 M360,28H0v254h360V28L360,28z"/>
	</g>
	<g>
		<linearGradient id="SVGID_1_" gradientUnits="userSpaceOnUse" x1="0" y1="155" x2="360" y2="155">
			<stop offset="0" style="stop-color:#4DF8CE"/>
			<stop offset="0.3522" style="stop-color:#84A1FD"/>
			<stop offset="0.7046" style="stop-color:#E3A5EE"/>
			<stop offset="1" style="stop-color:#EDE6BC"/>
		</linearGradient>
		<path class="st2" d="M356,32v246H4V32H356 M360,28H0v254h360V28L360,28z"/>
	</g>
	<linearGradient id="SVGID_2_" gradientUnits="userSpaceOnUse" x1="0" y1="16" x2="360" y2="16">
		<stop offset="0" style="stop-color:#4DF8CE"/>
		<stop offset="0.3522" style="stop-color:#84A1FD"/>
		<stop offset="0.7046" style="stop-color:#E3A5EE"/>
		<stop offset="1" style="stop-color:#EDE6BC"/>
	</linearGradient>
	<rect class="st3" width="360" height="32"/>
	<g>
		<path class="st4" d="M68,10v10H58V10H68 M72,6H54v18h18V6L72,6z"/>
	</g>
	<g>
		<path class="st4" d="M44,10v10H34V10H44 M48,6H30v18h18V6L48,6z"/>
	</g>
	<g>
		<path class="st4" d="M20,10v10H10V10H20 M24,6H6v18h18V6L24,6z"/>
	</g>
</g>
</svg>